<svg role="img" viewBox="0 0 48 48" xmlns="http://www.w3.org/2000/svg" id="Adobelightroom--Streamline-Simple-Icons.svg" height="48" width="48"><desc>Adobelightroom Streamline Icon: https://streamlinehq.com</desc><title>Adobe Lightroom</title><path d="M39.5 0.6H8.5C3.8 0.6 0 4.4 0 9.1v29.8c0 4.7 3.8 8.5 8.5 8.5h31c4.7 0 8.5 -3.8 8.5 -8.5V9.1C48 4.4 44.2 0.6 39.5 0.6zm-13.98 32.778c0 0.102 -0.058 0.18 -0.12 0.242 -0.06 0.04 -0.12 0.058 -0.202 0.058H12.52c-0.22 0 -0.32 -0.122 -0.32 -0.36V12.88c-0.02 -0.14 0.08 -0.26 0.22 -0.28h4c0.1 -0.02 0.22 0.06 0.22 0.16v16.86h9.24c0.202 0 0.262 0.098 0.22 0.28l-0.58 3.478zm12.5 -15.718v3.9c0 0.16 -0.1 0.22 -0.32 0.22 -1.298 -0.08 -2.6 0.16 -3.78 0.68 -0.4 0.18 -0.78 0.42 -1.08 0.74v10.2c0 0.2 -0.08 0.28 -0.26 0.28h-3.9c-0.16 0.02 -0.3 -0.08 -0.32 -0.238V22.28c0 -0.48 0 -0.98 -0.02 -1.5s-0.02 -1.04 -0.04 -1.56c-0.02 -0.44 -0.06 -0.88 -0.122 -1.32 -0.02 -0.1 0.04 -0.2 0.14 -0.22 0.02 -0.02 0.04 -0.02 0.08 0h3.5c0.2 0 0.36 0.14 0.42 0.32 0.08 0.14 0.14 0.3 0.16 0.46 0.04 0.2 0.078 0.42 0.1 0.62 0.02 0.22 0.042 0.46 0.042 0.72 0.598 -0.7 1.32 -1.28 2.138 -1.72 0.92 -0.5 1.94 -0.74 2.98 -0.72 0.138 -0.02 0.26 0.08 0.28 0.22 0.002 0.02 0.002 0.04 0.002 0.08z" fill="#ffffff" stroke-width="1"></path></svg>