<svg role="img" viewBox="0 0 48 48" xmlns="http://www.w3.org/2000/svg" id="Cocacola--Streamline-Simple-Icons.svg" height="48" width="48"><desc>Cocacola Streamline Icon: https://streamlinehq.com</desc><title>Coca Cola</title><path d="M33.626 17.628s-0.9 0.36 -1.946 1.512c-1.048 1.154 -1.656 2.45 -1.206 2.794 0.174 0.132 0.574 0.158 1.3 -0.5a5.728 5.728 0 0 0 1.532 -2.126c0.468 -1.14 0.32 -1.666 0.32 -1.68m5.726 2.076c-1.162 -0.598 -2.012 -1.328 -2.896 -1.78 -0.844 -0.432 -1.39 -0.614 -2.072 -0.522a2.114 2.114 0 0 0 -0.28 0.07s0.352 1.2 -1.046 3.214c-1.416 2.044 -2.7 2.03 -3.066 1.468 -0.382 -0.592 0.112 -1.8 0.936 -2.874 0.864 -1.124 2.38 -2.056 2.38 -2.056s-0.482 -0.296 -1.67 0.38c-1.16 0.652 -3.154 2.214 -5.004 4.846 -1.852 2.632 -2.22 4.08 -2.484 5.22 -0.264 1.14 -0.024 2.36 1.24 2.36s2.736 -1.928 3.152 -2.598c0.772 -1.248 1.274 -3.162 0.224 -2.9 -0.518 0.13 -0.936 0.702 -1.2 1.254a5.366 5.366 0 0 0 -0.38 1.108 4.37 4.37 0 0 0 -1.026 0.596 7.576 7.576 0 0 0 -0.972 0.86s0.004 -0.912 0.73 -2.388c0.728 -1.474 2.06 -2.148 2.816 -2.212 0.68 -0.054 1.566 0.524 0.816 2.654 -0.75 2.13 -2.966 4.72 -5.292 4.752 -2.146 0.03 -3.552 -2.71 -0.564 -7.49C27.002 18.38 30.882 16.76 32.14 16.58c1.26 -0.18 1.67 0.374 1.67 0.374a5.418 5.418 0 0 1 2.394 -0.394c1.54 0.104 2.728 1.192 4.3 1.958 -0.41 0.39 -0.8 0.8 -1.15 1.184m6.908 -1.78c-1.066 0.684 -2.54 1.304 -3.958 1.172 -0.358 0.37 -0.742 0.8 -1.126 1.268 2.456 0.486 4.61 -1.038 5.754 -2.334A7.64 7.64 0 0 0 48 16.496a9.584 9.584 0 0 1 -1.738 1.428m-3.272 6.924a0.536 0.536 0 0 0 0.046 -0.102 0.248 0.248 0 0 0 -0.226 -0.216c-0.234 -0.01 -0.554 0.034 -1.39 0.96a12.606 12.606 0 0 0 -1.78 2.526c-0.48 0.876 -0.674 1.528 -0.4 1.696a0.398 0.398 0 0 0 0.292 0.03c0.186 -0.044 0.398 -0.22 0.72 -0.59 0.15 -0.176 0.316 -0.424 0.516 -0.698 0.554 -0.752 1.946 -3.126 2.222 -3.606m-8.698 1.008c0.14 -0.364 0.318 -1.082 -0.052 -1.364 -0.398 -0.3 -1.41 0.402 -1.416 1.122 -0.006 0.738 0.714 1.07 0.886 1.118 0.1 0.026 0.132 0.02 0.18 -0.058a6.568 6.568 0 0 0 0.402 -0.818m-0.766 1.34a3.062 3.062 0 0 1 -0.696 -0.444 2.232 2.232 0 0 1 -0.52 -0.634c-0.016 -0.024 -0.03 -0.006 -0.046 0.016 -0.014 0.02 -0.078 0.078 -0.618 0.868 -0.54 0.792 -1.368 2.432 -0.62 2.71 0.482 0.18 1.282 -0.662 1.72 -1.22a10.42 10.42 0 0 0 0.804 -1.228c0.024 -0.046 0 -0.058 -0.024 -0.068m8.516 1.894c-0.204 0.326 -0.436 0.952 0.234 0.562 0.82 -0.472 1.988 -2.246 1.988 -2.246h0.53a17.76 17.76 0 0 1 -1.606 2.108c-0.83 0.92 -1.844 1.758 -2.56 1.674 -0.832 -0.096 -0.572 -1.192 -0.572 -1.192s-1.192 1.27 -2.02 1.18c-1.114 -0.124 -0.774 -1.502 -0.774 -1.502s-1.26 1.548 -2.12 1.5c-1.346 -0.08 -1.008 -1.718 -0.632 -2.872 0.2 -0.616 0.386 -1.1 0.386 -1.1s-0.134 0.034 -0.42 0.076c-0.152 0.022 -0.424 0.038 -0.424 0.038s-0.56 0.99 -1.01 1.584c-0.448 0.594 -2.356 2.644 -3.48 2.234 -1.036 -0.38 -0.692 -1.968 -0.088 -3.23 0.88 -1.84 3.36 -4.486 4.792 -4.136 1.482 0.36 0.034 3.064 0.034 3.064s0 0.01 0.014 0.018c0.03 0.01 0.108 0.02 0.286 -0.016a3.21 3.21 0 0 0 0.542 -0.16s1.492 -3.122 3.138 -5.166c1.646 -2.04 4.93 -5.56 6.22 -4.708 0.312 0.21 0.172 0.93 -0.252 1.804a5.782 5.782 0 0 1 -0.582 0.156c0.284 -0.516 0.472 -0.95 0.528 -1.254 0.194 -1.056 -2.27 1.17 -4.03 3.56a33.188 33.188 0 0 0 -2.818 4.56 7.72 7.72 0 0 0 0.908 -0.648 26.004 26.004 0 0 0 2.236 -2.086 24.338 24.338 0 0 0 1.902 -2.196 5.16 5.16 0 0 0 0.56 -0.058 24.108 24.108 0 0 1 -2.1 2.48c-0.7 0.71 -1.46 1.474 -2.122 2.03a17.68 17.68 0 0 1 -1.862 1.382s-1.54 3.106 -0.702 3.304c0.492 0.12 1.464 -1.38 1.464 -1.38s1.27 -1.934 2.034 -2.808c1.044 -1.186 1.94 -1.872 2.84 -1.884 0.522 -0.01 0.83 0.546 0.83 0.546l0.246 -0.38h1.514s-2.828 4.796 -3.054 5.158m4.222 -11.16c-1.066 0.682 -2.54 1.302 -3.958 1.17 -0.36 0.37 -0.742 0.8 -1.128 1.268 2.458 0.486 4.61 -1.036 5.756 -2.334A7.64 7.64 0 0 0 48 16.496a9.584 9.584 0 0 1 -1.738 1.428m-21.26 2.354h-1.44l-0.814 1.316h1.44zm-6.82 4.554c0.614 -0.84 2.304 -3.782 2.304 -3.782a0.248 0.248 0 0 0 -0.224 -0.216c-0.234 -0.012 -0.624 0.068 -1.4 1.038 -0.774 0.97 -1.376 1.74 -1.814 2.544 -0.48 0.876 -0.692 1.494 -0.414 1.662a0.41 0.41 0 0 0 0.288 0.03c0.18 -0.044 0.416 -0.226 0.738 -0.596a11.14 11.14 0 0 0 0.524 -0.68m-7.726 -3.98c-0.398 -0.3 -1.41 0.402 -1.416 1.12 -0.006 0.738 0.912 0.964 1.03 0.968a0.18 0.18 0 0 0 0.1 -0.02 0.12 0.12 0 0 0 0.048 -0.054 6.966 6.966 0 0 0 0.292 -0.65c0.14 -0.366 0.316 -1.082 -0.054 -1.364m-0.6 2.54a3.356 3.356 0 0 1 -0.78 -0.36 1.624 1.624 0 0 1 -0.558 -0.618c-0.014 -0.024 -0.03 -0.006 -0.044 0.016 -0.014 0.02 -0.094 0.122 -0.636 0.916 -0.54 0.796 -1.344 2.42 -0.592 2.7 0.48 0.18 1.288 -0.668 1.728 -1.224a14.48 14.48 0 0 0 0.91 -1.362c0.018 -0.048 0 -0.06 -0.028 -0.068m11.76 0.488h0.526s-2.642 3.824 -4.136 3.646c-0.832 -0.098 -0.586 -1.126 -0.586 -1.126s-1.17 1.37 -2.246 1.092c-0.974 -0.25 -0.344 -1.872 -0.344 -1.872 -0.112 0.044 -2.222 2.422 -3.706 1.852 -1.552 -0.6 -0.746 -2.592 -0.45 -3.19 0.25 -0.506 0.526 -0.998 0.526 -0.998s-0.238 0.068 -0.39 0.102l-0.372 0.08s-0.734 1.192 -1.182 1.788c-0.45 0.594 -2.356 2.64 -3.48 2.234 -1.124 -0.408 -0.846 -1.98 -0.214 -3.23 1.024 -2.024 3.452 -4.512 4.916 -4.136 1.478 0.378 0.254 2.776 0.254 2.776s0.294 0.038 1 -0.444c1.014 -0.692 2.352 -2.554 3.802 -2.334 0.684 0.102 1.32 0.8 0.45 2.128 -0.278 0.426 -0.744 0.806 -1.1 0.43 -0.222 -0.236 -0.028 -0.66 0.206 -0.954a0.914 0.914 0 0 1 0.78 -0.358s0.24 -0.546 -0.37 -0.538c-0.494 0.01 -1.742 1.16 -2.446 2.32 -0.646 1.066 -1.626 2.882 -0.644 3.278 0.902 0.364 2.618 -1.672 3.412 -2.74 0.794 -1.066 2.604 -3.484 4.124 -3.58 0.522 -0.034 0.834 0.442 0.834 0.442l0.176 -0.278h1.518s-2.86 4.774 -3.084 5.134c-0.176 0.282 -0.408 0.92 0.234 0.562 0.644 -0.356 1.992 -2.086 1.992 -2.086m-0.828 7.648a6.288 6.288 0 0 0 -3.816 -1.114 2.34 2.34 0 0 0 -1.86 1.008c-0.58 -1.01 -1.724 -1.63 -3.494 -1.616 -2.86 0.032 -5.698 1.352 -7.944 1.35 -2.154 0 -3.726 -1.354 -3.674 -3.76 0.094 -4.218 3.66 -8.018 6.32 -9.728 1.534 -0.98 2.818 -1.274 3.656 -1.18 0.612 0.068 1.348 0.776 0.884 1.818 -0.682 1.522 -1.624 1.398 -1.59 0.67 0.02 -0.474 0.336 -0.772 0.572 -0.938a1.164 1.164 0 0 1 0.556 -0.136c0.136 -0.114 0.234 -0.948 -0.858 -0.674 -1.092 0.274 -2.42 1.352 -3.68 2.742 -1.26 1.392 -3.22 4.022 -3.704 6.784 -0.226 1.28 -0.078 3.616 2.96 3.59 2.574 -0.02 6.37 -1.718 9.858 -1.682a6.68 6.68 0 0 1 3.45 0.944c0.902 0.556 1.984 1.368 2.368 1.922" fill="#ffffff" stroke-width="1"></path></svg>