<svg xmlns="http://www.w3.org/2000/svg" fill="none" viewBox="-2.4 -2.4 48 48" height="48" width="48" style="background-color: #000000" id="Apartment-Fill--Streamline-Rounded-Fill---Material-Symbols.svg">
  <path fill="#ffffff" d="M8.1 37.800000000000004C7.357500000000001 37.800000000000004 6.721947 37.53558 6.19335 37.00665C5.664447 36.47808 5.4 35.8425 5.4 35.1V15.525C5.4 14.7825 5.664447 14.14683 6.19335 13.6179C6.721947 13.08933 7.357500000000001 12.825000000000001 8.1 12.825000000000001H12.825000000000001V8.1C12.825000000000001 7.357500000000001 13.089419999999999 6.721803 13.618350000000001 6.192900000000001C14.14692 5.664302999999999 14.7825 5.4 15.525 5.4H27.675C28.4175 5.4 29.05317 5.664302999999999 29.5821 6.192900000000001C30.11067 6.721803 30.375 7.357500000000001 30.375 8.1V20.25H35.1C35.8425 20.25 36.478170000000006 20.51433 37.0071 21.0429C37.53567 21.57183 37.800000000000004 22.2075 37.800000000000004 22.95V35.1C37.800000000000004 35.8425 37.53567 36.47808 37.0071 37.00665C36.478170000000006 37.53558 35.8425 37.800000000000004 35.1 37.800000000000004H23.985V30.375H19.215000000000003V37.800000000000004H8.1ZM8.1 35.1H12.825000000000001V30.375H8.1V35.1ZM8.1 27.675H12.825000000000001V22.95H8.1V27.675ZM8.1 20.25H12.825000000000001V15.525H8.1V20.25ZM15.525 27.675H20.25V22.95H15.525V27.675ZM15.525 20.25H20.25V15.525H15.525V20.25ZM15.525 12.825000000000001H20.25V8.1H15.525V12.825000000000001ZM22.95 27.675H27.675V22.95H22.95V27.675ZM22.95 20.25H27.675V15.525H22.95V20.25ZM22.95 12.825000000000001H27.675V8.1H22.95V12.825000000000001ZM30.375 35.1H35.1V30.375H30.375V35.1ZM30.375 27.675H35.1V22.95H30.375V27.675Z" stroke-width="1"></path>
</svg>