<svg xmlns="http://www.w3.org/2000/svg" viewBox="0 0 24 24"><defs><style>.cls-1{fill:#fff;}.cls-2{fill-rule:evenodd;}</style></defs><g id="Layer_2" data-name="Layer 2"><g id="Layer_1-2" data-name="Layer 1"><rect class="cls-1" width="24" height="24" rx="4"/><path id="Subtract" class="cls-2" d="M11.36,9.94A2.73,2.73,0,0,1,12,9.87a3.09,3.09,0,0,1,2,.74l-2.53,1.46-.12.08ZM12.42,12l1.91-1.1a3.08,3.08,0,0,1,.8,2.08,3.31,3.31,0,0,1-.05.55l-2.53-1.46Zm.64.85c0,.05,0,.09,0,.13V16A3.15,3.15,0,0,0,15,14Zm-4.14-.42a3.41,3.41,0,0,0-.05.55,3.12,3.12,0,0,0,.8,2.09L11.58,14l-.13-.06ZM9,12l1.91,1.11s0-.08,0-.13V10.06A3.11,3.11,0,0,0,9,12Zm3,4.11a3.08,3.08,0,0,1-2-.73l2.53-1.46.12-.08v2.21A3.39,3.39,0,0,1,12,16.13Z"/><path class="cls-2" d="M9.86,20.65h4.28c3,0,4.5,0,5.58-.7a4.49,4.49,0,0,0,1.18-1.16c.72-1.06.72-2.53.72-5.48s0-4.42-.72-5.48a4.3,4.3,0,0,0-1.18-1.15A5.51,5.51,0,0,0,16.83,6a1.35,1.35,0,0,1-1.3-1.08,2,2,0,0,0-2-1.57H10.43a2,2,0,0,0-2,1.57A1.35,1.35,0,0,1,7.17,6a5.51,5.51,0,0,0-2.89.68A4.3,4.3,0,0,0,3.1,7.83c-.72,1.06-.72,2.53-.72,5.48s0,4.42.72,5.48A4.49,4.49,0,0,0,4.28,20C5.36,20.65,6.86,20.65,9.86,20.65Zm6-7.69A3.85,3.85,0,1,1,12,9.12,3.85,3.85,0,0,1,15.85,13Zm1.92-3.6a.72.72,0,0,0,0,1.44h1a.72.72,0,1,0,0-1.44Z"/></g></g></svg>