<svg role="img" viewBox="0 0 48 48" xmlns="http://www.w3.org/2000/svg" id="Fujifilm--Streamline-Simple-Icons.svg" height="48" width="48"><desc>Fujifilm Streamline Icon: https://streamlinehq.com</desc><title>Fujifilm</title><path d="M36.576 20v6.258c0 0.408 0.192 0.626 0.6 0.626h2.068v0.704c0 0.08 -0.056 0.136 -0.136 0.136h-3.344c-1.036 0 -1.2 -0.568 -1.2 -1.088v-6.2c0 -0.296 0.112 -0.432 0.464 -0.432h1.548m-3.832 0v7.312c0 0.328 -0.136 0.408 -0.408 0.408h-1.576v-7.31c0 -0.25 0.08 -0.41 0.432 -0.41h1.552M0 21.064c0 -0.6 0 -1.06 0.98 -1.06h4.24v0.732c0 0.056 -0.024 0.108 -0.108 0.108H2.56c-0.324 0 -0.488 0.166 -0.488 0.52v1.958h2.992v0.786c0 0.08 -0.056 0.108 -0.112 0.108h-2.88v3.1c0 0.3 -0.164 0.408 -0.492 0.408H0v-6.66m8.296 -1.062v5.9c0 0.52 0.08 0.868 0.432 1.06 0.464 0.272 1.28 0.272 1.768 0 0.328 -0.192 0.464 -0.488 0.464 -1.06v-5.52c0 -0.244 0.08 -0.38 0.436 -0.38h1.548v5.706c0 1.334 -0.84 1.88 -1.576 2.07a7.184 7.184 0 0 1 -3.4 0c-1.116 -0.328 -1.632 -0.98 -1.632 -2.07v-5.326c0 -0.244 0.08 -0.408 0.38 -0.408h1.58M45.744 20c-0.38 0 -0.628 0.188 -0.708 0.544l-1.252 5.326h-0.028L42.424 20h-1.768c-0.352 0 -0.46 0.16 -0.46 0.46v7.288h0.76c0.108 0 0.16 -0.052 0.16 -0.188v-6.12h0.112l1.604 6.28h1.06c0.408 0 0.544 -0.16 0.656 -0.544l1.44 -5.736h0.108v6.28h1.416c0.352 0 0.488 -0.138 0.488 -0.46V20h-2.256m-23.416 4.186h-1.984v3.534h1.576c0.272 0 0.408 -0.08 0.408 -0.41v-3.124m-0.108 -1.494c0.08 -0.056 0.108 -0.112 0.108 -0.22V20h-1.552c-0.352 0 -0.432 0.16 -0.432 0.408v3.75l1.876 -1.466m-6.8 4.432c0.872 -0.11 1.144 -0.628 1.144 -1.39v-5.326c0 -0.328 0.16 -0.408 0.38 -0.408h1.576v5.026c0 1.224 -0.272 1.854 -0.98 2.396 -0.38 0.272 -1.032 0.6 -2.5 0.6 -0.816 0 -1.2 -0.056 -1.252 -0.056 -0.08 -0.028 -0.108 -0.056 -0.108 -0.112v-0.652c0.408 -0.028 1.168 0 1.74 -0.08M25.348 20c-0.98 0 -0.98 0.488 -0.98 1.06v1.984c0 0.056 -0.028 0.056 -0.028 0.08l-1.36 1.064h1.388v3.532h1.576c0.328 0 0.488 -0.108 0.488 -0.408v-3.124h2.884c0.056 0 0.108 -0.028 0.108 -0.112v-0.788h-2.992v-1.96c0 -0.352 0.164 -0.512 0.52 -0.512h2.556c0.08 0 0.108 -0.056 0.108 -0.112V20h-4.268" fill="#ffffff" stroke-width="1"></path></svg>