<svg xmlns="http://www.w3.org/2000/svg" fill="none" viewBox="-2.4 -2.4 48 48" height="48" width="48" style="background-color: #000000" id="Shutter-Speed-Add-Fill--Streamline-Rounded-Fill---Material-Symbols.svg">
  <path fill="#ffffff" d="M21.6 39.6C19.35 39.6 17.24247 39.1725 15.277500000000002 38.3175C13.31253 37.4625 11.60253 36.30753000000001 10.1475 34.8525C8.692497 33.39747 7.5375000000000005 31.68747 6.6825 29.7225C5.8275 27.75753 5.4 25.650000000000002 5.4 23.400000000000002C5.4 21.150000000000002 5.8275 19.04247 6.6825 17.0775C7.5375000000000005 15.11253 8.692497 13.40253 10.1475 11.9475C11.60253 10.49247 13.31253 9.3375 15.277500000000002 8.482500000000002C17.24247 7.6274999999999995 19.35 7.2 21.6 7.2C23.64003 7.2 25.55253 7.544997000000001 27.337500000000002 8.235000000000001C29.12247 8.925003 30.735 9.9 32.175000000000004 11.16L33.75 9.585C34.019999999999996 9.315 34.35003 9.18 34.74 9.18C35.12997 9.18 35.46 9.315 35.730000000000004 9.585C36 9.855 36.135 10.17747 36.135 10.5525C36.135 10.92753 36 11.25 35.730000000000004 11.520000000000001L34.11 13.14C35.520030000000006 14.85 36.48753 16.702469999999998 37.0125 18.697499999999998C37.53747 20.69253 37.800000000000004 22.83003 37.800000000000004 25.11C37.800000000000004 25.58997 37.64997 25.95753 37.35 26.212500000000002C37.05003 26.467470000000002 36.72 26.595000000000002 36.36 26.595000000000002C35.97003 26.595000000000002 35.64747 26.45253 35.392500000000005 26.1675C35.13753 25.882469999999998 35.01 25.530030000000004 35.01 25.11C35.25003 20.99997 34.16247 17.4375 31.7475 14.4225C29.332530000000002 11.4075 25.94997 9.9 21.6 9.9C17.849970000000003 9.9 14.662529999999999 11.21247 12.0375 13.8375C9.412469999999999 16.46253 8.1 19.649970000000003 8.1 23.400000000000002C8.1 27.15003 9.412469999999999 30.337470000000003 12.0375 32.9625C14.662529999999999 35.58753 17.849970000000003 36.9 21.6 36.9C22.23 36.9 22.85253 36.855000000000004 23.4675 36.765C24.08247 36.675000000000004 24.68997 36.55503 25.290000000000003 36.405C25.650000000000002 36.315000000000005 25.99497 36.36 26.325 36.54C26.655030000000004 36.72 26.865000000000002 36.99 26.955 37.35C27.045 37.71 27 38.05497 26.82 38.385C26.64 38.71503 26.37 38.925000000000004 26.009999999999998 39.015C25.319969999999998 39.195 24.60753 39.33747 23.8725 39.4425C23.13747 39.54753 22.38003 39.6 21.6 39.6ZM25.155 34.965C25.155 33.705000000000005 25.36497 32.52753 25.785 31.432499999999997C26.20503 30.337470000000003 26.80497 29.355030000000003 27.585 28.485C28.36503 27.61497 29.26503 26.89497 30.285 26.325C31.304969999999997 25.75503 32.41503 25.39503 33.615 25.245C33.705000000000005 24.64497 33.75 24.037470000000003 33.75 23.4225C33.75 22.80753 33.705000000000005 22.200029999999998 33.615 21.6H26.73L18.945 35.28C19.99503 35.520030000000006 21.04497 35.602470000000004 22.095000000000002 35.5275C23.14503 35.45253 24.165000000000003 35.264970000000005 25.155 34.965ZM21.42 19.98H33.255C32.715 18.11997 31.807530000000003 16.515 30.5325 15.165000000000001C29.257469999999998 13.815 27.765 12.78 26.055 12.06L21.42 19.98ZM18.36 22.005L24.48 11.565C22.68 11.14497 20.835 11.13003 18.945 11.520000000000001C17.055 11.90997 15.345 12.76497 13.815 14.085L18.36 22.005ZM9.629999999999999 25.425H18.45L12.6 15.209999999999999C11.34 16.62003 10.447470000000001 18.217530000000004 9.922500000000001 20.0025C9.397530000000001 21.787470000000003 9.29997 23.59503 9.629999999999999 25.425ZM17.37 34.785L21.735 27.045H10.035C10.54503 28.81503 11.4525 30.382469999999998 12.7575 31.7475C14.0625 33.11253 15.59997 34.12503 17.37 34.785ZM17.1 4.5C16.740000000000002 4.5 16.43247 4.372497 16.177500000000002 4.117500000000001C15.922530000000002 3.862503 15.795000000000002 3.539997 15.795000000000002 3.15C15.795000000000002 2.79 15.922530000000002 2.475 16.177500000000002 2.205C16.43247 1.935 16.75503 1.8 17.145 1.8H26.055C26.415000000000003 1.8 26.73 1.935 27 2.205C27.27 2.475 27.405 2.79 27.405 3.15C27.405 3.539997 27.27 3.862503 27 4.117500000000001C26.73 4.372497 26.415000000000003 4.5 26.055 4.5H17.1ZM33.300000000000004 36H30.150000000000002C29.760029999999997 36 29.43747 35.87247 29.182499999999997 35.61750000000001C28.92753 35.36253 28.8 35.039970000000004 28.8 34.65C28.8 34.26003 28.92753 33.937470000000005 29.182499999999997 33.6825C29.43747 33.427530000000004 29.760029999999997 33.300000000000004 30.150000000000002 33.300000000000004H33.300000000000004V30.150000000000002C33.300000000000004 29.760029999999997 33.427530000000004 29.43747 33.6825 29.182499999999997C33.937470000000005 28.92753 34.26003 28.8 34.65 28.8C35.039970000000004 28.8 35.36253 28.92753 35.61750000000001 29.182499999999997C35.87247 29.43747 36 29.760029999999997 36 30.150000000000002V33.300000000000004H39.15C39.539970000000004 33.300000000000004 39.86253 33.427530000000004 40.11750000000001 33.6825C40.37247 33.937470000000005 40.5 34.26003 40.5 34.65C40.5 35.039970000000004 40.37247 35.36253 40.11750000000001 35.61750000000001C39.86253 35.87247 39.539970000000004 36 39.15 36H36V39.15C36 39.539970000000004 35.87247 39.86253 35.61750000000001 40.11750000000001C35.36253 40.37247 35.039970000000004 40.5 34.65 40.5C34.26003 40.5 33.937470000000005 40.37247 33.6825 40.11750000000001C33.427530000000004 39.86253 33.300000000000004 39.539970000000004 33.300000000000004 39.15V36Z" stroke-width="1"></path>
</svg>