<svg viewBox="0 0 48 48" fill="none" xmlns="http://www.w3.org/2000/svg" id="Letter-Unread--Streamline-Solar.svg" height="48" width="48"><desc>Letter Unread Streamline Icon: https://streamlinehq.com</desc><path d="M47.52 9.888C47.52 13.785 44.361 16.944 40.464 16.944S33.408 13.785 33.408 9.888S36.567 2.832 40.464 2.832S47.52 5.991 47.52 9.888Z" fill="#ffffff" stroke-width="1"></path><path fill-rule="evenodd" clip-rule="evenodd" d="M28.704 7.536H19.296C10.426 7.536 5.991 7.536 3.2356 10.2916C0.48 13.047 0.48 17.482 0.48 26.352C0.48 35.2218 0.48 39.657 3.2356 42.4124C5.991 45.168 10.426 45.168 19.296 45.168H28.704C37.5738 45.168 42.009 45.168 44.7644 42.4124C47.52 39.657 47.52 35.2218 47.52 26.352C47.52 22.9336 47.52 20.174 47.3622 17.9154C45.5098 19.5088 43.0994 20.472 40.464 20.472C39.3382 20.472 38.2534 20.2964 37.2356 19.9706L34.0752 22.6044C31.9904 24.3416 30.3008 25.7496 28.8094 26.7088C27.2558 27.708 25.743 28.3392 24 28.3392C22.257 28.3392 20.7442 27.708 19.1906 26.7088C17.6992 25.7496 16.0096 24.3416 13.9248 22.6044L8.7588 18.2992C8.0104 17.6754 7.9092 16.5632 8.5328 15.8148C9.1566 15.0662 10.2688 14.9652 11.0174 15.5888L16.095 19.8202C18.2894 21.649 19.8128 22.9144 21.099 23.7416C22.344 24.5424 23.1884 24.8112 24 24.8112C24.8116 24.8112 25.656 24.5424 26.901 23.7416C28.1872 22.9144 29.7106 21.649 31.905 19.8202L33.8794 18.175C31.4424 16.2358 29.88 13.2444 29.88 9.888C29.88 9.0798 29.9706 8.2928 30.1422 7.5364C29.676 7.536 29.197 7.536 28.704 7.536Z" fill="#ffffff" stroke-width="1"></path></svg>