<svg role="img" viewBox="0 0 48 48" xmlns="http://www.w3.org/2000/svg" id="Nikon--Streamline-Simple-Icons.svg" height="48" width="48"><desc>Nikon Streamline Icon: https://streamlinehq.com</desc><title>Nikon</title><path d="M16.534 17.362c-1.38 0 -2.108 0.926 -2.108 1.746 0 0.288 0.064 1.306 1.898 1.306 1.524 0 2.114 -0.976 2.114 -1.708 0 -0.488 -0.4 -1.344 -1.904 -1.344zm-13.74 0.43L0 30.292h3.44c0.388 -2 0.91 -4.112 1.422 -6.276l2.412 6.272H10.54L13.362 17.8H10l-1.43 6.352 -2.36 -6.36Zm17.174 0.008L17.2 30.288h3.326l1.116 -4.75 1.406 4.75h3.41l-1.414 -5.016 3.43 -4.16h-3.82l-2.76 3.328 1.486 -6.64zm13.216 2.93c-5.164 0 -5.924 4.02 -6.068 4.758 -0.38 1.86 0.04 4.274 2.47 4.914 1.6 0.42 4.102 0.374 5.71 -0.94 1.472 -1.2 2.2 -3.238 2.176 -5.15 -0.024 -1.84 -1.58 -3.582 -4.288 -3.582zm12.386 0.144c-1.146 0.076 -2.312 0.7 -2.972 1.614 0.088 -0.376 0.176 -0.808 0.28 -1.316h-3.4l-1.998 9.116h3.39l1.126 -5.172c0.208 -0.952 0.976 -1.36 1.652 -1.182 0.292 0.08 0.7 0.3 0.562 1.096l-1.148 5.26h3.348l1.534 -7.02a1.92 1.92 0 0 0 -1.254 -2.28 3.188 3.188 0 0 0 -1.12 -0.116zm-31.32 0.242 -2.04 9.172h3.352l2.044 -9.172zm18.46 2.208c0.744 -0.004 0.944 0.436 0.88 0.852 -0.18 1.09 -0.49 2.162 -0.724 3.078 -0.164 0.508 -0.642 0.8 -1.202 0.8 -0.572 0 -0.916 -0.356 -0.864 -0.812 0.08 -0.768 0.572 -2.714 0.712 -3.098 0.24 -0.668 0.902 -0.816 1.2 -0.82z" fill="#ffffff" stroke-width="1"></path></svg>