<svg viewBox="0 0 48 48" fill="none" xmlns="http://www.w3.org/2000/svg" id="Outgoing-Call-Rounded--Streamline-Solar.svg" height="48" width="48"><desc>Outgoing Call Rounded Streamline Icon: https://streamlinehq.com</desc><path d="M32.82 15.18L44.58 3.42M44.58 3.42V12.24M44.58 3.42H35.76" stroke="#ffffff" stroke-width="1.5" stroke-linecap="round" stroke-linejoin="round"></path><path d="M18.2306 4.3496L20.1386 7.7686C21.8606 10.854 21.1694 14.9018 18.4572 17.6138C18.457 17.6142 15.1678 20.9036 21.132 26.868C27.0944 32.8304 30.384 29.5452 30.3862 29.5428C33.0984 26.8308 37.146 26.1396 40.2314 27.8614L43.6504 29.7696C48.3096 32.3696 48.8598 38.9036 44.7646 42.999C42.3038 45.4598 39.2892 47.3746 35.9566 47.5006C30.3468 47.7136 20.8198 46.2938 11.263 36.737C1.7064 27.1802 0.2866 17.6532 0.4992 12.0434C0.6256 8.711 2.5404 5.6964 5.0012 3.2356C9.0964 -0.8598 15.6304 -0.3094 18.2306 4.3496Z" fill="#ffffff" stroke-width="1.5"></path></svg>