<svg viewBox="0 0 48 48" fill="none" xmlns="http://www.w3.org/2000/svg" id="Point-On-Map--Streamline-Solar.svg" height="48" width="48"><desc>Point On Map Streamline Icon: https://streamlinehq.com</desc><path d="M45.598 36.0668V22.468C45.598 19.9636 45.598 18.7114 44.9186 17.7686C44.3696 17.0072 43.489 16.6024 41.9184 16.0574C41.597 19.912 40.3206 23.8484 38.3158 27.2936C35.9816 31.3052 32.5154 34.8916 28.0724 36.83C25.483 37.9596 22.517 37.9596 19.9276 36.83C15.4848 34.8916 12.0184 31.3052 9.6842 27.2936C8.1636 24.6804 7.0618 21.7848 6.4784 18.8564C5.5602 18.7212 4.8558 18.7906 4.2478 19.1296C4.0052 19.265 3.7792 19.428 3.574 19.6154C2.402 20.686 2.402 22.6762 2.402 26.6572V38.4874C2.402 40.9918 2.402 42.244 3.0814 43.1866C3.761 44.1296 4.9488 44.5256 7.3248 45.3174L8.2452 45.6242H8.2452C12.0296 46.8858 13.9218 47.5164 15.8572 47.52C16.4402 47.5212 17.0224 47.4798 17.5994 47.3964C19.5148 47.119 21.3144 46.219 24.9134 44.4198C27.6714 43.0406 29.0506 42.3512 30.5154 42.0312C31.0294 41.919 31.5504 41.8406 32.0748 41.7968C33.5692 41.6718 35.0766 41.923 38.0918 42.4254C41.1476 42.9348 42.6754 43.1894 43.791 42.5488C44.1696 42.3312 44.5058 42.0466 44.7828 41.7086C45.598 40.7134 45.598 39.1646 45.598 36.0668Z" fill="#ffffff" stroke-width="1"></path><path fill-rule="evenodd" clip-rule="evenodd" d="M24 0.48C16.0478 0.48 9.6014 6.6046 9.6014 14.1594C9.6014 21.6552 14.1968 30.4022 21.367 33.53C23.0384 34.2592 24.9616 34.2592 26.633 33.53C33.8032 30.4022 38.3986 21.6552 38.3986 14.1594C38.3986 6.6046 31.9522 0.48 24 0.48ZM24 19.6782C26.6508 19.6782 28.7996 17.5294 28.7996 14.8786S26.6508 10.0792 24 10.0792S19.2004 12.228 19.2004 14.8786S21.3492 19.6782 24 19.6782Z" fill="#ffffff" stroke-width="1"></path></svg>