<svg xmlns="http://www.w3.org/2000/svg" fill="none" viewBox="-2.4 -2.4 48 48" height="48" width="48" style="background-color: #000000" id="Background-Replace-Fill--Streamline-Rounded-Fill---Material-Symbols.svg">
  <path fill="#ffffff" d="M5.58 19.8V15.975L16.155 5.4H19.98L5.58 19.8ZM5.4 12.33V8.504999999999999L8.504999999999999 5.4H12.33L5.4 12.33ZM29.115000000000002 11.565C28.81503 11.23497 28.50003 10.9125 28.17 10.5975C27.83997 10.2825 27.47997 10.00503 27.090000000000003 9.765L31.455000000000002 5.4H35.28L29.115000000000002 11.565ZM9.9 26.955L13.365 23.490000000000002C13.57497 23.82003 13.7925 24.12 14.0175 24.39C14.2425 24.66 14.490000000000002 24.91497 14.76 25.155L13.905 25.38C13.21497 25.58997 12.53997 25.83 11.879999999999999 26.1C11.22003 26.37 10.55997 26.655030000000004 9.9 26.955ZM31.41 16.965000000000003C31.349970000000003 16.425 31.25997 15.90003 31.14 15.390000000000002C31.020030000000002 14.87997 30.840030000000002 14.384970000000001 30.6 13.905L37.800000000000004 6.705V10.575000000000001L31.41 16.965000000000003ZM21.105 8.1L23.805 5.4H27.63L24.48 8.55C24.00003 8.399997 23.527530000000002 8.287497 23.0625 8.2125C22.59747 8.137503 22.110030000000002 8.1 21.6 8.1H21.105ZM5.4 27.675V23.85L11.700000000000001 17.55V18C11.700000000000001 18.51003 11.729970000000002 19.00503 11.79 19.485C11.85003 19.96497 11.97 20.43 12.15 20.88L5.4 27.675ZM35.550000000000004 28.17C35.190000000000005 27.83997 34.80003 27.569969999999998 34.38 27.36C33.95997 27.15003 33.54003 26.955 33.12 26.775000000000002L37.800000000000004 22.095000000000002V25.92L35.550000000000004 28.17ZM30.330000000000002 25.740000000000002C29.99997 25.650000000000002 29.677500000000002 25.55253 29.3625 25.447499999999998C29.0475 25.342470000000002 28.72503 25.245 28.395 25.155C28.995030000000003 24.64497 29.4975 24.05997 29.902500000000003 23.400000000000002C30.307499999999997 22.74003 30.645 22.03497 30.915000000000003 21.285L37.800000000000004 14.4V18.27L30.330000000000002 25.740000000000002ZM21.6 25.2C19.62 25.2 17.92503 24.49503 16.515 23.085C15.104970000000002 21.674970000000002 14.4 19.98 14.4 18C14.4 16.02 15.104970000000002 14.32503 16.515 12.915C17.92503 11.50497 19.62 10.8 21.6 10.8C23.58 10.8 25.274970000000003 11.50497 26.685 12.915C28.09503 14.32503 28.8 16.02 28.8 18C28.8 19.98 28.09503 21.674970000000002 26.685 23.085C25.274970000000003 24.49503 23.58 25.2 21.6 25.2ZM7.2 36.45V34.605000000000004C7.2 33.585029999999996 7.454997 32.64003 7.965 31.77C8.475003000000001 30.899970000000003 9.18 30.240000000000002 10.08 29.790000000000003C11.879999999999999 28.89 13.7475 28.19997 15.682500000000001 27.720000000000002C17.6175 27.24003 19.590030000000002 27 21.6 27C23.60997 27 25.5825 27.24003 27.5175 27.720000000000002C29.4525 28.19997 31.319999999999997 28.89 33.12 29.790000000000003C34.019999999999996 30.240000000000002 34.72497 30.899970000000003 35.235 31.77C35.74503000000001 32.64003 36 33.585029999999996 36 34.605000000000004V36.45C36 36.83997 35.87247 37.16253 35.61750000000001 37.417500000000004C35.36253 37.672470000000004 35.039970000000004 37.800000000000004 34.65 37.800000000000004H8.55C8.160003 37.800000000000004 7.837497 37.672470000000004 7.5825000000000005 37.417500000000004C7.327503 37.16253 7.2 36.83997 7.2 36.45Z" stroke-width="1"></path>
</svg>