<svg xmlns="http://www.w3.org/2000/svg" fill="none" viewBox="-2.4 -2.4 48 48" height="48" width="48" style="background-color: #000000" id="Tamper-Detection-On-Fill--Streamline-Rounded-Fill---Material-Symbols.svg">
  <path fill="#ffffff" d="M6.895557 36C6.5583540000000005 36 6.217254 35.92503 5.872257 35.775C5.527251000000001 35.624970000000005 5.234751 35.43003 4.994757000000001 35.190000000000005L0.4947543 30.69C0.434754 30.629969999999997 0.412254 30.584970000000002 0.42725430000000003 30.555000000000003C0.4422537 30.52503 0.479754 30.480030000000003 0.5397543 30.419999999999998C0.6897537 30.26997 0.8622540000000001 30.14253 1.0572570000000001 30.0375C1.252251 29.93247 1.469754 29.880000000000003 1.709757 29.880000000000003C2.009754 29.880000000000003 2.279754 29.917530000000003 2.519757 29.992500000000003C2.759751 30.067469999999997 2.984751 30.224970000000003 3.194757 30.465000000000003L4.949757 32.22V21.150000000000002C4.949757 20.8899 5.040801 20.67498 5.222907 20.50515C5.405004 20.33505 5.617404 20.25 5.860107 20.25C6.123204 20.25 6.337251 20.33505 6.502257 20.50515C6.667254 20.67498 6.749757 20.8899 6.749757 21.150000000000002V26.55H8.099757V18.45C8.099757 18.189899999999998 8.190801 17.974980000000002 8.372907 17.80515C8.555004 17.63505 8.767404 17.55 9.01008 17.55C9.27324 17.55 9.48726 17.63505 9.652230000000001 17.80515C9.81729 17.974980000000002 9.899730000000002 18.189899999999998 9.899730000000002 18.45V26.55H11.249730000000001V20.25C11.249730000000001 19.9899 11.34081 19.774980000000003 11.52288 19.605150000000002C11.70504 19.43505 11.917440000000001 19.35 12.16008 19.35C12.42324 19.35 12.63726 19.43505 12.80223 19.605150000000002C12.96729 19.774980000000003 13.04973 19.9899 13.04973 20.25V26.55H14.399730000000002V22.05C14.399730000000002 21.7899 14.49081 21.57498 14.672880000000001 21.40515C14.85504 21.23505 15.06744 21.150000000000002 15.31008 21.150000000000002C15.57324 21.150000000000002 15.78726 21.23505 15.952229999999998 21.40515C16.11729 21.57498 16.199730000000002 21.7899 16.199730000000002 22.05V33.300000000000004C16.199730000000002 34.04997 15.94098 34.68753 15.42348 35.2125C14.905980000000001 35.73747 14.26473 36 13.499730000000001 36H6.895557ZM21.14973 33.75C20.76723 33.75 20.44674 33.620580000000004 20.18808 33.361650000000004C19.92924 33.10308 19.79973 32.7825 19.79973 32.4V18.45C19.79973 17.7075 19.53549 17.07183 19.00683 16.5429C18.47799 16.01433 17.84223 15.75 17.09973 15.75H4.949757C4.567257 15.75 4.246704 15.620580000000002 3.9881070000000003 15.361650000000001C3.729204 15.103079999999999 3.599757 14.7825 3.599757 14.4V7.65C3.599757 6.930000000000001 3.8697570000000003 6.3 4.409757 5.760000000000001C4.949757 5.22 5.579757 4.95 6.299757 4.95H29.69973C30.41973 4.95 31.049729999999997 5.22 31.58973 5.760000000000001C32.12973 6.3 32.39973 6.930000000000001 32.39973 7.65V17.325L38.42973 11.295000000000002C38.639790000000005 11.085030000000001 38.88729 11.033100000000001 39.172230000000006 11.1393C39.45726 11.2455 39.59973 11.447370000000001 39.59973 11.745000000000001V26.955C39.59973 27.25263 39.45726 27.4545 39.172230000000006 27.5607C38.88729 27.666900000000002 38.639790000000005 27.61497 38.42973 27.405L32.39973 21.375V31.05C32.39973 31.77 32.12973 32.4 31.58973 32.940000000000005C31.049729999999997 33.480000000000004 30.41973 33.75 29.69973 33.75H21.14973Z" stroke-width="1"></path>
</svg>