<svg role="img" viewBox="0 0 48 48" xmlns="http://www.w3.org/2000/svg" id="Sony--Streamline-Simple-Icons.svg" height="48" width="48"><desc>Sony Streamline Icon: https://streamlinehq.com</desc><title>Sony</title><path d="M17.101 19.7762c1.842 0 3.3148 0.4606 4.4418 1.4846 0.7696 0.697 1.1998 1.6908 1.1878 2.733a3.8162 3.8162 0 0 1 -1.1878 2.7452c-1.0544 0.9696 -2.6966 1.4846 -4.442 1.4846 -1.745 0 -3.357 -0.515 -4.4296 -1.4846 -0.7816 -0.697 -1.218 -1.6968 -1.206 -2.7452 0 -1.036 0.4364 -2.03 1.206 -2.733 1 -0.909 2.7694 -1.4846 4.4298 -1.4846zm0.006 7.3384c0.9212 0 1.7756 -0.3212 2.3756 -0.915 0.5998 -0.5998 0.8664 -1.321 0.8664 -2.2058 0 -0.8484 -0.2968 -1.642 -0.8666 -2.2058 -0.5876 -0.5816 -1.4664 -0.909 -2.3754 -0.909s-1.7876 0.3274 -2.3814 0.909c-0.5696 0.5636 -0.8666 1.3574 -0.8666 2.206 -0.012 0.818 0.297 1.612 0.8666 2.2058 0.5938 0.5878 1.4664 0.915 2.3814 0.915zm-9.6836 -3.933c0.321 0.0848 0.63 0.188 0.9332 0.3272a2.704 2.704 0 0 1 0.7574 0.5152c0.394 0.412 0.618 0.9634 0.612 1.533a1.9286 1.9286 0 0 1 -0.7574 1.5576 4.1324 4.1324 0 0 1 -1.418 0.697 7.4462 7.4462 0 0 1 -2.3876 0.3394c-0.704 0 -1.0934 -0.0812 -1.6276 -0.1924l-0.154 -0.032c-0.588 -0.1332 -1.1634 -0.315 -1.715 -0.5574a0.139 0.139 0 0 0 -0.0848 -0.0242c-0.0908 0 -0.1636 0.0788 -0.1636 0.1696v0.406H0.2424v-2.9572h1.0484a1.5118 1.5118 0 0 0 0.2726 0.836c0.4242 0.5214 0.8788 0.7214 1.315 0.879 0.7332 0.2424 1.5028 0.3696 2.2724 0.3938 1.1052 0 1.7512 -0.268 1.891 -0.326l0.018 -0.0074 0.0124 -0.0046c0.1232 -0.0452 0.6238 -0.2286 0.6238 -0.7832 0 -0.5486 -0.4676 -0.668 -0.774 -0.746l-0.044 -0.0116c-0.3416 -0.092 -1.124 -0.1744 -1.9794 -0.2646l-0.3052 -0.032c-0.9696 -0.103 -1.9392 -0.2546 -2.3936 -0.3516 -0.9954 -0.2194 -1.3884 -0.5834 -1.632 -0.809l-0.0164 -0.0152A2.0384 2.0384 0 0 1 0 22.3216c0 -0.994 0.6788 -1.594 1.515 -1.9634 0.8908 -0.4 1.9512 -0.576 2.8784 -0.576 1.6422 0.0062 2.9754 0.5394 3.454 0.788 0.194 0.103 0.291 -0.0242 0.291 -0.1212v-0.2968h1.0544v2.5752h-0.9454a1.8112 1.8112 0 0 0 -0.5878 -0.9818 2.578 2.578 0 0 0 -0.594 -0.3574c-0.7936 -0.3334 -1.642 -0.503 -2.5026 -0.491 -0.8846 0 -1.733 0.17 -2.1572 0.4306 -0.2666 0.1636 -0.4 0.3696 -0.4 0.612 0 0.3454 0.2908 0.4848 0.4364 0.5272 0.3934 0.1194 1.2656 0.206 1.944 0.2738 0.1472 0.0146 0.2852 0.0284 0.4072 0.0412 0.6544 0.0668 2.024 0.2486 2.63 0.4zm36.3346 -1.9932v-0.9574H48v0.9392h-0.9514c-0.3454 0 -0.4848 0.0668 -0.7454 0.3576l-2.8542 3.26a0.196 0.196 0 0 0 -0.0364 0.1396v1.4846a2.212 2.212 0 0 0 0.0242 0.206 0.2992 0.2992 0 0 0 0.2 0.1818 1.8736 1.8736 0 0 0 0.2606 0.018h0.9696v0.9396h-5.1448v-0.9394h0.9212a1.8686 1.8686 0 0 0 0.2604 -0.0182 0.3254 0.3254 0 0 0 0.2062 -0.182 1.1252 1.1252 0 0 0 0.018 -0.2v-1.4844c0 -0.0484 0 -0.0484 -0.0666 -0.1272a1213.5184 1213.5184 0 0 0 -2.8238 -3.2056c-0.1516 -0.1576 -0.4122 -0.4122 -0.812 -0.4122h-0.9152v-0.9392h5.1752v0.9392h-0.6242c-0.1394 0 -0.2364 0.1394 -0.1152 0.291 0 0 1.7392 2.0784 1.7574 2.1026 0.0182 0.0244 0.0304 0.0244 0.0546 0.006 0.0242 -0.018 1.7876 -2.0906 1.7998 -2.1086a0.1824 0.1824 0 0 0 -0.0364 -0.2546 0.219 0.219 0 0 0 -0.1212 -0.0364zm-12.568 -0.0062h0.9696c0.4424 0 0.5212 0.1696 0.5272 0.5818l0.0546 3.1328 -5.163 -4.648H23.888v0.9394h0.824c0.594 0 0.6364 0.3272 0.6364 0.618v4.4276c0.0008 0.257 0.0018 0.59 -0.3636 0.59h-1.012v0.9334h4.3268v-0.9394h-1.0546c-0.424 0 -0.4422 -0.194 -0.4484 -0.606v-3.7632l5.9448 5.3022h1.515l-0.0788 -5.9932c0.006 -0.436 0.0364 -0.5816 0.4848 -0.5816h0.9452v-0.9394H31.19Z" fill="#ffffff" stroke-width="1"></path></svg>