<svg xmlns="http://www.w3.org/2000/svg" fill="none" viewBox="-2.4 -2.4 48 48" height="48" width="48" style="background-color: #000000" id="Photo-Prints-Fill--Streamline-Rounded-Fill---Material-Symbols.svg">
  <path fill="#ffffff" d="M25.650000000000002 20.790000000000003C26.28 20.790000000000003 26.79003 20.59497 27.18 20.205C27.569969999999998 19.81503 27.765 19.305 27.765 18.675V18.225L28.215000000000003 18.36C28.964970000000005 18.60003 29.587500000000002 18.65997 30.0825 18.540000000000003C30.5775 18.42003 30.944969999999998 18.15003 31.185 17.73C31.42503 17.30997 31.5225 16.80003 31.477500000000003 16.2C31.432499999999997 15.59997 31.06503 15.13503 30.375 14.805L29.880000000000003 14.58L30.375 14.31C31.06503 13.950000000000001 31.432499999999997 13.48497 31.477500000000003 12.915C31.5225 12.34503 31.42503 11.85003 31.185 11.43C30.944969999999998 11.009970000000001 30.570030000000003 10.73997 30.06 10.620000000000001C29.549970000000002 10.50003 28.935 10.55997 28.215000000000003 10.8L27.765 10.935V10.485000000000001C27.765 9.855 27.569969999999998 9.34497 27.18 8.955C26.79003 8.565002999999999 26.28 8.370000000000001 25.650000000000002 8.370000000000001C25.02 8.370000000000001 24.5025 8.565002999999999 24.0975 8.955C23.6925 9.34497 23.490000000000002 9.855 23.490000000000002 10.485000000000001V10.935L23.040000000000003 10.8C22.29003 10.55997 21.674970000000002 10.50003 21.195 10.620000000000001C20.715030000000002 10.73997 20.340000000000003 11.009970000000001 20.07 11.43C19.8 11.85003 19.694969999999998 12.34503 19.755 12.915C19.81503 13.48497 20.18997 13.950000000000001 20.88 14.31L21.375 14.58L20.88 14.805C20.18997 15.13503 19.822499999999998 15.59997 19.777500000000003 16.2C19.7325 16.80003 19.82997 17.30997 20.07 17.73C20.31003 18.15003 20.68497 18.42003 21.195 18.540000000000003C21.70503 18.65997 22.32 18.60003 23.040000000000003 18.36L23.490000000000002 18.225V18.675C23.490000000000002 19.305 23.6925 19.81503 24.0975 20.205C24.5025 20.59497 25.02 20.790000000000003 25.650000000000002 20.790000000000003ZM25.650000000000002 16.695C25.049970000000002 16.695 24.5475 16.4925 24.1425 16.087500000000002C23.7375 15.682500000000001 23.535 15.180030000000002 23.535 14.58C23.535 13.979970000000002 23.7375 13.4775 24.1425 13.0725C24.5475 12.6675 25.049970000000002 12.465 25.650000000000002 12.465C26.25003 12.465 26.7525 12.6675 27.157500000000002 13.0725C27.5625 13.4775 27.765 13.979970000000002 27.765 14.58C27.765 15.180030000000002 27.5625 15.682500000000001 27.157500000000002 16.087500000000002C26.7525 16.4925 26.25003 16.695 25.650000000000002 16.695ZM14.355 31.590000000000003C13.635 31.590000000000003 13.004999999999999 31.319999999999997 12.465 30.780000000000005C11.925 30.240000000000002 11.655 29.61 11.655 28.89V6.3C11.655 5.58 11.925 4.95 12.465 4.41C13.004999999999999 3.87 13.635 3.6 14.355 3.6H36.945C37.665 3.6 38.295 3.87 38.835 4.41C39.375 4.95 39.644999999999996 5.58 39.644999999999996 6.3V28.89C39.644999999999996 29.61 39.375 30.240000000000002 38.835 30.780000000000005C38.295 31.319999999999997 37.665 31.590000000000003 36.945 31.590000000000003H14.355ZM9.629999999999999 39.55500000000001C8.880003 39.644999999999996 8.2125 39.47247 7.6274999999999995 39.0375C7.0425 38.60253 6.705 38.00997 6.615 37.26L3.7350000000000003 14.85C3.645 14.10003 3.825 13.425030000000001 4.275 12.825000000000001C4.7250000000000005 12.224969999999999 5.325003 11.879999999999999 6.075 11.79L8.955 11.475V29.790000000000003C8.955 31.05 9.38997 32.11497000000001 10.26 32.985C11.13003 33.85503 12.195 34.29 13.455 34.29H36.315000000000005C36.315000000000005 34.89003 36.12753 35.40753 35.752500000000005 35.8425C35.37747 36.27747 34.89003 36.52497 34.29 36.585L9.629999999999999 39.55500000000001ZM25.650000000000002 26.82C26.79003 26.75997 27.8775 26.505 28.9125 26.055C29.947499999999998 25.605 30.869999999999997 25.00497 31.680000000000003 24.255C32.4 23.59503 33.0075 22.84497 33.502500000000005 22.005C33.9975 21.16503 34.335 20.26503 34.515 19.305C34.57503 19.06497 34.52247 18.855 34.3575 18.675C34.192530000000005 18.495 33.990030000000004 18.42003 33.75 18.45C32.789970000000004 18.569969999999998 31.85253 18.83997 30.9375 19.259999999999998C30.022470000000002 19.680030000000002 29.205000000000002 20.22003 28.485 20.88C27.64503 21.660030000000003 26.97003 22.55247 26.46 23.5575C25.94997 24.56253 25.67997 25.650000000000002 25.650000000000002 26.82ZM25.650000000000002 26.82C25.62003 25.650000000000002 25.35003 24.56253 24.840000000000003 23.5575C24.32997 22.55247 23.654970000000002 21.660030000000003 22.815 20.88C22.095000000000002 20.22003 21.277530000000002 19.680030000000002 20.3625 19.259999999999998C19.44747 18.83997 18.51003 18.569969999999998 17.55 18.45C17.30997 18.42003 17.10747 18.495 16.9425 18.675C16.777530000000002 18.855 16.724970000000003 19.06497 16.785 19.305C16.965000000000003 20.26503 17.302500000000002 21.16503 17.7975 22.005C18.2925 22.84497 18.900000000000002 23.59503 19.62 24.255C20.43 25.00497 21.352500000000003 25.605 22.3875 26.055C23.4225 26.505 24.50997 26.75997 25.650000000000002 26.82Z" stroke-width="1"></path>
</svg>